<svg width="16" height="10" viewBox="0 0 16 10" fill="none" xmlns="http://www.w3.org/2000/svg">
<path d="M15.5963 7.05127C15.5217 2.34601 14.9072 1.00527 10.2047 0.156586C10.2047 0.156586 9.54277 1.00007 7.99991 1.00007C6.45706 1.00007 5.795 0.156586 5.795 0.156586C1.14386 0.996014 0.491971 2.31687 0.406257 6.89841C0.399229 7.27253 0.395971 7.29219 0.394714 7.24876C0.395 7.33013 0.395343 7.48064 0.395343 7.7431C0.395343 7.7431 1.51489 10 7.99991 10C14.4848 10 15.6045 7.7431 15.6045 7.7431C15.6045 7.57447 15.6046 7.45721 15.6048 7.37744C15.6035 7.4043 15.601 7.35224 15.5963 7.05127Z" fill="white"/>
</svg>
