<svg width="20" height="20" viewBox="0 0 20 20" fill="none" xmlns="http://www.w3.org/2000/svg">
<path d="M19.1861 8.88879H10.2326V11.9999H15.6951C14.8802 14.7047 12.4567 16.6666 9.59298 16.6666C6.06086 16.6666 3.19768 13.6817 3.19768 9.99992C3.19768 6.31794 6.06096 3.33329 9.59298 3.33329C11.3717 3.33329 12.9804 4.09038 14.1396 5.31204L16.306 2.85738C14.5758 1.0901 12.2068 4.70269e-10 9.59298 4.70269e-10C4.29495 -5.29837e-05 0 4.47711 0 9.99992C0 15.5227 4.29495 20 9.59303 20C14.234 20 18.2972 16.5643 19.1861 12V8.88884L19.1861 8.88879Z" fill="white"/>
</svg>
