<svg width="20" height="18" viewBox="0 0 20 18" fill="none" xmlns="http://www.w3.org/2000/svg">
<path d="M18.5826 1.81297C17.6375 0.890182 16.3319 0.428986 14.665 0.428986C14.2038 0.428986 13.733 0.508966 13.2532 0.668848C12.7732 0.828848 12.3267 1.04471 11.9141 1.31627C11.501 1.58776 11.146 1.84271 10.8481 2.08074C10.5506 2.31884 10.2678 2.57188 10 2.83965C9.73207 2.57188 9.44932 2.31884 9.1518 2.08074C8.85408 1.84271 8.4989 1.58792 8.08587 1.31627C7.67291 1.04459 7.22645 0.828887 6.74657 0.668848C6.26673 0.509005 5.79603 0.428986 5.33476 0.428986C3.66803 0.428986 2.36231 0.890299 1.4174 1.81297C0.472493 2.73555 0 4.01524 0 5.65214C0 6.15067 0.087564 6.66417 0.26234 7.19225C0.437116 7.72052 0.636285 8.17073 0.859456 8.54269C1.08259 8.9146 1.33562 9.27744 1.61837 9.63086C1.90112 9.98432 2.10775 10.2278 2.23781 10.3618C2.36798 10.4956 2.47032 10.5924 2.54471 10.6518L9.5089 17.3707C9.64286 17.5047 9.80654 17.5717 9.99996 17.5717C10.1934 17.5717 10.3572 17.5047 10.4911 17.3709L17.4442 10.6744C19.1481 8.97065 20 7.2965 20 5.65214C20 4.01524 19.5274 2.73555 18.5826 1.81297Z" fill="white"/>
</svg>
