<svg width="20" height="20" viewBox="0 0 20 20" fill="none" xmlns="http://www.w3.org/2000/svg">
<path d="M18.9325 18.1637L14.5141 13.7452C15.6993 12.3826 16.4169 10.6047 16.4169 8.66156C16.4169 4.38419 12.9378 0.909088 8.66446 0.909088C4.38709 0.909088 0.911987 4.38823 0.911987 8.66156C0.911987 12.9349 4.39112 16.414 8.66446 16.414C10.6076 16.414 12.3855 15.6964 13.7481 14.5112L18.1666 18.9296C18.2714 19.0345 18.4125 19.0909 18.5496 19.0909C18.6866 19.0909 18.8277 19.0385 18.9325 18.9296C19.1422 18.72 19.1422 18.3733 18.9325 18.1637ZM1.99645 8.66156C1.99645 4.98488 4.98778 1.99758 8.66043 1.99758C12.3371 1.99758 15.3244 4.98891 15.3244 8.66156C15.3244 12.3342 12.3371 15.3296 8.66043 15.3296C4.98778 15.3296 1.99645 12.3382 1.99645 8.66156Z" fill="#5C5C5C" stroke="#5C5C5C"/>
</svg>
