<svg width="19" height="10" viewBox="0 0 19 10" fill="none" xmlns="http://www.w3.org/2000/svg">
<path d="M1.82362 4.6236C2.06397 4.79401 2.78846 5.30014 3.99714 6.14173C5.20586 6.98332 6.13182 7.63133 6.77506 8.08578C6.84573 8.13559 6.99587 8.24388 7.22556 8.41079C7.45529 8.57781 7.64617 8.71277 7.79806 8.81572C7.95005 8.91864 8.13381 9.03409 8.34949 9.16189C8.56511 9.28958 8.76836 9.38563 8.9592 9.44921C9.15008 9.51332 9.32678 9.54507 9.48932 9.54507H9.49998H9.51068C9.67322 9.54507 9.84999 9.51328 10.0409 9.44921C10.2316 9.38563 10.4351 9.28947 10.6505 9.16189C10.866 9.03394 11.0498 8.9186 11.2018 8.81572C11.3538 8.71277 11.5445 8.57781 11.7743 8.41079C12.004 8.24373 12.1543 8.13559 12.225 8.08578C12.8752 7.63133 14.5293 6.47715 17.187 4.62337C17.7029 4.26131 18.134 3.82443 18.4803 3.31304C18.8269 2.80187 19 2.26562 19 1.7046C19 1.23578 18.832 0.834463 18.4962 0.500685C18.1605 0.166833 17.7628 0 17.3035 0H1.69635C1.15212 0 0.733296 0.184632 0.439955 0.553896C0.146652 0.923234 0 1.38489 0 1.93882C0 2.38626 0.194446 2.87112 0.583153 3.39311C0.971823 3.91514 1.38545 4.32534 1.82362 4.6236Z" fill="white"/>
</svg>
