<svg width="19" height="11" viewBox="0 0 19 11" fill="none" xmlns="http://www.w3.org/2000/svg">
<path d="M17.9396 1.76336C15.6214 3.33994 13.8611 4.56519 12.6596 5.43887C12.2567 5.73705 11.9299 5.96982 11.6789 6.13662C11.4279 6.30353 11.0941 6.47398 10.6769 6.6479C10.26 6.82208 9.87138 6.90891 9.51083 6.90891H9.50002H9.48936C9.12888 6.90891 8.74006 6.82208 8.32309 6.6479C7.90612 6.47398 7.57208 6.30353 7.32115 6.13662C7.07029 5.96982 6.74334 5.73705 6.34049 5.43887C5.38619 4.7358 3.62971 3.51046 1.07098 1.76336C0.667973 1.49366 0.311018 1.18451 0 0.836548V9.29517C0 9.76422 0.166037 10.1653 0.498297 10.4991C0.830482 10.8331 1.22992 11 1.69647 11H17.3036C17.7701 11 18.1695 10.8331 18.5017 10.4991C18.834 10.1652 19 9.76425 19 9.29517V0.836548C18.696 1.1773 18.3427 1.48645 17.9396 1.76336Z" fill="white"/>
</svg>
