<svg width="12" height="18" viewBox="0 0 12 18" fill="none" xmlns="http://www.w3.org/2000/svg">
<path d="M11.7165 4.48003C11.6545 4.2399 11.5286 3.98403 11.4354 3.76001C10.3208 0.992 7.88541 0 5.91894 0C3.28646 0 0.38709 1.82405 0 5.58385V6.352C0 6.38405 0.0106918 6.67202 0.0258789 6.81606C0.242873 8.60789 1.61113 10.5122 2.63301 12.304C3.7324 14.2238 4.87317 16.1123 6.00338 18C6.70029 16.7681 7.39469 15.52 8.07572 14.3201C8.26133 13.9679 8.47678 13.6159 8.66259 13.2798C8.78644 13.056 9.02303 12.8322 9.13113 12.6239C10.2305 10.5441 12 8.44811 12 6.38401V5.53606C12 5.31229 11.7316 4.52828 11.7165 4.48003ZM5.96713 8.33612C5.19332 8.33612 4.34632 7.93629 3.92825 6.83209C3.86596 6.65633 3.87098 6.30408 3.87098 6.27181V5.77581C3.87098 4.36816 5.02764 3.72803 6.03388 3.72803C7.27266 3.72803 8.23075 4.75217 8.23075 6.03227C8.23075 7.31232 7.20592 8.33612 5.96713 8.33612Z" fill="white"/>
</svg>
